<?xml version="1.0" encoding="UTF-8"?>
<!DOCTYPE svg PUBLIC "-//W3C//DTD SVG 1.1//EN" "http://www.w3.org/Graphics/SVG/1.1/DTD/svg11.dtd">
<svg xmlns="http://www.w3.org/2000/svg" version="1.1" width="256px" height="63px" style="shape-rendering:geometricPrecision; text-rendering:geometricPrecision; image-rendering:optimizeQuality; fill-rule:evenodd; clip-rule:evenodd" xmlns:xlink="http://www.w3.org/1999/xlink">
<g><path style="opacity:0.531" fill="#fefffe" d="M 26.5,-0.5 C 27.5,-0.5 28.5,-0.5 29.5,-0.5C 29.9321,0.709515 30.5987,1.70951 31.5,2.5C 31.5,3.16667 31.8333,3.5 32.5,3.5C 32.5,4.16667 32.8333,4.5 33.5,4.5C 33.5,5.16667 33.8333,5.5 34.5,5.5C 36.1964,7.52483 37.863,9.52483 39.5,11.5C 39.5,12.1667 39.8333,12.5 40.5,12.5C 41.7927,14.2959 43.2927,15.9625 45,17.5C 46.1475,16.5419 47.1475,16.8753 48,18.5C 48.6172,19.4491 48.4506,20.2825 47.5,21C 50.6317,24.1454 53.6317,27.3121 56.5,30.5C 56.5,41.1667 56.5,51.8333 56.5,62.5C 42.8333,62.5 29.1667,62.5 15.5,62.5C 15.5774,61.2502 16.244,60.4169 17.5,60C 17.5,53 17.5,46 17.5,39C 14.8333,38 14.8333,37 17.5,36C 17.1667,35.6667 16.8333,35.3333 16.5,35C 17.2489,33.2663 17.7489,31.433 18,29.5C 18.3333,31.8333 18.6667,34.1667 19,36.5C 18.6065,24.893 24.1065,19.393 35.5,20C 34.8333,20.3333 34.1667,20.6667 33.5,21C 35.687,22.025 37.3536,23.525 38.5,25.5C 37.8902,26.391 37.5569,27.391 37.5,28.5C 36.8333,28.5 36.5,28.8333 36.5,29.5C 35.1667,29.8333 35.1667,30.1667 36.5,30.5C 35.6857,32.2726 34.3524,32.7726 32.5,32C 33.1667,31.6667 33.8333,31.3333 34.5,31C 33.0993,30.5899 31.766,30.0899 30.5,29.5C 31.9738,27.0731 31.8071,24.7398 30,22.5C 29.3333,23.1667 28.6667,23.8333 28,24.5C 27.5017,27.8168 27.335,31.1501 27.5,34.5C 32.7937,34.6822 32.7937,35.1822 27.5,36C 32.8333,37 32.8333,38 27.5,39C 32.7937,39.8178 32.7937,40.3178 27.5,40.5C 27.5,46.5 27.5,52.5 27.5,58.5C 35.5,58.5 43.5,58.5 51.5,58.5C 51.5,49.5 51.5,40.5 51.5,31.5C 52.33,40.9913 52.83,50.658 53,60.5C 53.6667,50.5 53.6667,40.5 53,30.5C 52.6174,29.944 52.1174,29.6107 51.5,29.5C 48.1632,25.1305 44.4965,21.7972 40.5,19.5C 41.8333,18.8333 41.8333,18.1667 40.5,17.5C 40.5,16.8333 40.1667,16.5 39.5,16.5C 39.5,15.8333 39.1667,15.5 38.5,15.5C 38.5,14.8333 38.1667,14.5 37.5,14.5C 34.8046,11.4744 32.1379,8.47445 29.5,5.5C 28.4523,3.06732 27.7856,3.06732 27.5,5.5C 26.8333,5.5 26.5,5.83333 26.5,6.5C 25.8333,6.5 25.5,6.83333 25.5,7.5C 24.8333,7.5 24.5,7.83333 24.5,8.5C 23.8333,8.5 23.5,8.83333 23.5,9.5C 22.1667,9.83333 22.1667,10.1667 23.5,10.5C 23.573,12.0269 22.9063,13.0269 21.5,13.5C 21.1667,12.1667 20.8333,12.1667 20.5,13.5C 19.8333,13.5 19.5,13.8333 19.5,14.5C 18.8333,14.5 18.5,14.8333 18.5,15.5C 17.8333,15.5 17.5,15.8333 17.5,16.5C 16.8333,16.5 16.5,16.8333 16.5,17.5C 15.8333,17.5 15.5,17.8333 15.5,18.5C 14.8333,18.5 14.5,18.8333 14.5,19.5C 13.6618,19.8417 13.3284,20.5084 13.5,21.5C 12.8333,21.5 12.5,21.8333 12.5,22.5C 11.8333,22.5 11.5,22.8333 11.5,23.5C 10.8333,23.5 10.5,23.8333 10.5,24.5C 9.16667,24.8333 9.16667,25.1667 10.5,25.5C 9.92022,27.7488 8.58689,29.4154 6.5,30.5C 6.16667,29.1667 5.83333,29.1667 5.5,30.5C 4.83333,30.5 4.5,30.8333 4.5,31.5C 3.50577,41.6532 3.17244,51.9865 3.5,62.5C 2.16667,62.5 0.833333,62.5 -0.5,62.5C -0.5,51.5 -0.5,40.5 -0.5,29.5C 0.833333,29.1667 0.833333,28.8333 -0.5,28.5C -0.5,27.8333 -0.5,27.1667 -0.5,26.5C 4.61714,23.9482 9.28381,20.1149 13.5,15C 12.5494,14.2825 12.3828,13.4491 13,12.5C 17.0175,10.6921 20.5175,7.69208 23.5,3.5C 24.1667,3.5 24.5,3.16667 24.5,2.5C 25.4013,1.70951 26.0679,0.709515 26.5,-0.5 Z M 29.5,5.5 C 28.8333,5.5 28.1667,5.5 27.5,5.5C 27.7856,3.06732 28.4523,3.06732 29.5,5.5 Z M 38.5,25.5 C 39.3382,25.8417 39.6716,26.5084 39.5,27.5C 38.8333,27.8333 38.1667,28.1667 37.5,28.5C 37.5569,27.391 37.8902,26.391 38.5,25.5 Z M 51.5,29.5 C 52.1174,29.6107 52.6174,29.944 53,30.5C 53.6667,40.5 53.6667,50.5 53,60.5C 52.83,50.658 52.33,40.9913 51.5,31.5C 51.5,30.8333 51.5,30.1667 51.5,29.5 Z"/></g>
<g><path style="opacity:0.006" fill="#fefffe" d="M 24.5,2.5 C 23.8333,2.5 23.5,2.83333 23.5,3.5C 22.2875,2.50289 22.4542,1.50289 24,0.5C 24.4643,1.09442 24.631,1.76109 24.5,2.5 Z"/></g>
<g><path style="opacity:0.006" fill="#fefffe" d="M 34.5,5.5 C 33.8333,5.5 33.5,5.16667 33.5,4.5C 32.8333,4.5 32.5,4.16667 32.5,3.5C 31.8333,3.5 31.5,3.16667 31.5,2.5C 31.369,1.76109 31.5357,1.09442 32,0.5C 33,1.5 34,2.5 35,3.5C 35.6917,4.43677 35.525,5.10343 34.5,5.5 Z"/></g>
<g><path style="opacity:0.008" fill="#fefffe" d="M 27.5,6.5 C 27.5,6.16667 27.5,5.83333 27.5,5.5C 28.1667,5.5 28.8333,5.5 29.5,5.5C 29.5912,7.69772 28.9245,8.03105 27.5,6.5 Z"/></g>
<g><path style="opacity:0.008" fill="#fefffe" d="M 26.5,6.5 C 26.8333,6.5 27.1667,6.5 27.5,6.5C 27.3147,7.17014 26.9813,7.17014 26.5,6.5 Z"/></g>
<g><path style="opacity:0.012" fill="#fefffe" d="M 25.5,7.5 C 25.8333,7.5 26.1667,7.5 26.5,7.5C 26.3147,8.17014 25.9813,8.17014 25.5,7.5 Z"/></g>
<g><path style="opacity:0.016" fill="#fefffe" d="M 24.5,8.5 C 24.8333,8.5 25.1667,8.5 25.5,8.5C 25.3147,9.17014 24.9813,9.17014 24.5,8.5 Z"/></g>
<g><path style="opacity:0.012" fill="#fefffe" d="M 23.5,9.5 C 23.8333,9.5 24.1667,9.5 24.5,9.5C 24.3147,10.1701 23.9813,10.1701 23.5,9.5 Z"/></g>
<g><path style="opacity:0.006" fill="#fefffe" d="M 40.5,12.5 C 39.8333,12.5 39.5,12.1667 39.5,11.5C 39.7467,9.02482 40.4134,9.02482 41.5,11.5C 41.3764,12.1067 41.0431,12.44 40.5,12.5 Z"/></g>
<g><path style="opacity:0.008" fill="#fefffe" d="M 20.5,13.5 C 20.8333,13.5 21.1667,13.5 21.5,13.5C 21.3147,14.1701 20.9813,14.1701 20.5,13.5 Z"/></g>
<g><path style="opacity:0.016" fill="#fefffe" d="M 19.5,14.5 C 19.8333,14.5 20.1667,14.5 20.5,14.5C 20.3147,15.1701 19.9813,15.1701 19.5,14.5 Z"/></g>
<g><path style="opacity:0.007" fill="#fefffe" d="M 37.5,14.5 C 38.1667,14.5 38.5,14.8333 38.5,15.5C 38.5,15.8333 38.5,16.1667 38.5,16.5C 36.5759,16.2893 36.2426,15.6226 37.5,14.5 Z"/></g>
<g><path style="opacity:0.012" fill="#fefffe" d="M 18.5,15.5 C 18.8333,15.5 19.1667,15.5 19.5,15.5C 19.3147,16.1701 18.9813,16.1701 18.5,15.5 Z"/></g>
<g><path style="opacity:0.012" fill="#fefffe" d="M 17.5,16.5 C 17.8333,16.5 18.1667,16.5 18.5,16.5C 18.3147,17.1701 17.9813,17.1701 17.5,16.5 Z"/></g>
<g><path style="opacity:0.009" fill="#fefffe" d="M 38.5,16.5 C 38.8333,16.5 39.1667,16.5 39.5,16.5C 40.1667,16.5 40.5,16.8333 40.5,17.5C 40.5,18.1667 40.5,18.8333 40.5,19.5C 39.0937,19.0269 38.427,18.0269 38.5,16.5 Z"/></g>
<g><path style="opacity:0.012" fill="#fefffe" d="M 16.5,17.5 C 16.8333,17.5 17.1667,17.5 17.5,17.5C 17.3147,18.1701 16.9813,18.1701 16.5,17.5 Z"/></g>
<g><path style="opacity:0.006" fill="#fefffe" d="M 15.5,18.5 C 15.8333,18.5 16.1667,18.5 16.5,18.5C 16.573,20.0269 15.9063,21.0269 14.5,21.5C 14.5,20.8333 14.5,20.1667 14.5,19.5C 15.1667,19.5 15.5,19.1667 15.5,18.5 Z"/></g>
<g><path style="opacity:0.007" fill="#fefffe" d="M 98.5,20.5 C 100.966,19.3659 103.633,19.1993 106.5,20C 103.854,20.4974 101.187,20.6641 98.5,20.5 Z"/></g>
<g><path style="opacity:0.008" fill="#fefffe" d="M 184.5,20.5 C 186.966,19.3659 189.633,19.1993 192.5,20C 189.854,20.4974 187.187,20.6641 184.5,20.5 Z"/></g>
<g><path style="opacity:0.008" fill="#fefffe" d="M 175.5,20.5 C 176.833,21.1667 176.833,21.1667 175.5,20.5 Z"/></g>
<g><path style="opacity:0.493" fill="#fefffe" d="M 184.5,20.5 C 186.948,21.4731 189.615,21.8064 192.5,21.5C 192.667,73.4957 193.167,73.4957 194,21.5C 193.862,34.2453 194.696,46.7453 196.5,59C 195.833,59.3333 195.167,59.6667 194.5,60C 195.756,60.4169 196.423,61.2502 196.5,62.5C 191.833,62.5 187.167,62.5 182.5,62.5C 183.589,60.8829 185.256,60.0496 187.5,60C 186.167,59.6667 184.833,59.3333 183.5,59C 184.321,48.2431 184.821,37.4098 185,26.5C 185.333,37.1667 185.667,47.8333 186,58.5C 186.826,46.9924 186.659,35.6591 185.5,24.5C 185.167,23.1667 184.833,23.1667 184.5,24.5C 182.207,23.9997 180.04,23.9997 178,24.5C 178.317,27.7462 178.483,31.0795 178.5,34.5C 182.449,34.6932 182.449,35.1932 178.5,36C 183.833,37 183.833,38 178.5,39C 183.794,39.8178 183.794,40.3178 178.5,40.5C 177.903,46.9596 178.57,53.1263 180.5,59C 179.833,59.3333 179.167,59.6667 178.5,60C 179.756,60.4169 180.423,61.2502 180.5,62.5C 175.833,62.5 171.167,62.5 166.5,62.5C 166.577,61.2502 167.244,60.4169 168.5,60C 168.5,53 168.5,46 168.5,39C 165.833,38 165.833,37 168.5,36C 168.167,35.6667 167.833,35.3333 167.5,35C 168.227,33.6012 168.727,32.1012 169,30.5C 169.333,32.5 169.667,34.5 170,36.5C 169.835,26.5032 174.668,21.1699 184.5,20.5 Z"/></g>
<g><path style="opacity:0.008" fill="#fefffe" d="M 13.5,21.5 C 13.8333,21.5 14.1667,21.5 14.5,21.5C 14.3147,22.1701 13.9813,22.1701 13.5,21.5 Z"/></g>
<g><path style="opacity:0.499" fill="#fefffe" d="M 123.5,39.5 C 124.26,45.8039 124.593,52.1373 124.5,58.5C 129.794,58.6822 129.794,59.1822 124.5,60C 126.437,60.1216 127.77,60.955 128.5,62.5C 124.167,62.5 119.833,62.5 115.5,62.5C 116.331,55.4962 116.664,48.1629 116.5,40.5C 114.833,40.5 113.167,40.5 111.5,40.5C 111.167,39.1667 110.833,39.1667 110.5,40.5C 109.833,40.5 109.5,40.8333 109.5,41.5C 108.167,42.1667 108.167,42.8333 109.5,43.5C 109.37,50.1638 109.704,56.4971 110.5,62.5C 106.167,62.5 101.833,62.5 97.5,62.5C 97.5,61.8333 97.5,61.1667 97.5,60.5C 98.2216,60.0825 98.7216,59.4158 99,58.5C 99.1667,55.1667 99.3333,51.8333 99.5,48.5C 98.8887,40.195 98.8887,32.0284 99.5,24C 98.6919,23.6924 98.0253,23.1924 97.5,22.5C 100.768,21.513 104.102,21.1796 107.5,21.5C 107.334,27.5092 107.501,33.5092 108,39.5C 108.5,39 109,38.5 109.5,38C 108.363,32.918 108.196,27.7513 109,22.5C 109.333,26.8333 109.667,31.1667 110,35.5C 114.959,35.0342 119.459,36.3675 123.5,39.5 Z"/></g>
<g><path style="opacity:0.008" fill="#fefffe" d="M 12.5,22.5 C 12.8333,22.5 13.1667,22.5 13.5,22.5C 13.3147,23.1701 12.9813,23.1701 12.5,22.5 Z"/></g>
<g><path style="opacity:0.004" fill="#fefffe" d="M 95.5,22.5 C 96.8333,23.1667 96.8333,23.1667 95.5,22.5 Z"/></g>
<g><path style="opacity:0.012" fill="#fefffe" d="M 11.5,23.5 C 11.8333,23.5 12.1667,23.5 12.5,23.5C 12.3147,24.1701 11.9813,24.1701 11.5,23.5 Z"/></g>
<g><path style="opacity:0.006" fill="#fefffe" d="M 39.5,27.5 C 39.6716,26.5084 39.3382,25.8417 38.5,25.5C 38.3932,23.6214 38.8932,23.2881 40,24.5C 40.7401,25.7494 40.5735,26.7494 39.5,27.5 Z"/></g>
<g><path style="opacity:0.016" fill="#fefffe" d="M 10.5,24.5 C 10.8333,24.5 11.1667,24.5 11.5,24.5C 11.3147,25.1701 10.9813,25.1701 10.5,24.5 Z"/></g>
<g><path style="opacity:0.016" fill="#fefffe" d="M 184.5,24.5 C 184.833,24.5 185.167,24.5 185.5,24.5C 185.315,25.1701 184.981,25.1701 184.5,24.5 Z"/></g>
<g><path style="opacity:0.004" fill="#fefffe" d="M 89.5,25.5 C 90.8333,26.1667 90.8333,26.1667 89.5,25.5 Z"/></g>
<g><path style="opacity:0.518" fill="#fefffe" d="M 97.5,60.5 C 96.5,60.8333 95.8333,61.5 95.5,62.5C 93.1667,62.5 90.8333,62.5 88.5,62.5C 88.5,61.8333 88.1667,61.5 87.5,61.5C 87.0133,60.5266 86.5133,59.5266 86,58.5C 85.3333,31.8333 84.6667,31.8333 84,58.5C 84.102,52.0503 83.2686,45.8837 81.5,40C 83.9913,39.3741 83.9913,38.5407 81.5,37.5C 82.0253,36.8076 82.6919,36.3076 83.5,36C 83.1667,35.6667 82.8333,35.3333 82.5,35C 84.1796,34.9657 85.6796,34.799 87,34.5C 87.8952,32.1955 88.7285,29.8622 89.5,27.5C 90.3214,30.4465 90.8214,33.4465 91,36.5C 91.3333,33.8333 91.6667,31.1667 92,28.5C 92.4955,30.4727 92.6621,32.4727 92.5,34.5C 97.7937,34.6822 97.7937,35.1822 92.5,36C 99.1667,37 99.1667,38 92.5,39C 99.1344,39.8232 99.1344,40.3232 92.5,40.5C 92.3338,46.5092 92.5005,52.5092 93,58.5C 93.9745,56.1224 94.6411,56.4557 95,59.5C 95.4828,58.552 95.6495,57.552 95.5,56.5C 96.552,56.3505 97.552,56.5172 98.5,57C 97.6634,58.0113 97.33,59.1779 97.5,60.5 Z"/></g>
<g><path style="opacity:0.014" fill="#fefffe" d="M 169.5,27.5 C 170.525,27.8966 170.692,28.5632 170,29.5C 169.536,28.9056 169.369,28.2389 169.5,27.5 Z"/></g>
<g><path style="opacity:0.004" fill="#fefffe" d="M 29.5,29.5 C 28.8333,28.1667 28.8333,28.1667 29.5,29.5 Z"/></g>
<g><path style="opacity:0.004" fill="#fefffe" d="M 29.5,29.5 C 29.8333,29.5 30.1667,29.5 30.5,29.5C 30.3147,30.1701 29.9813,30.1701 29.5,29.5 Z"/></g>
<g><path style="opacity:0.004" fill="#fefffe" d="M 36.5,29.5 C 37.8333,30.1667 37.8333,30.1667 36.5,29.5 Z"/></g>
<g><path style="opacity:0.008" fill="#fefffe" d="M 57.5,30.5 C 56.8333,29.1667 56.8333,29.1667 57.5,30.5 Z"/></g>
<g><path style="opacity:0.012" fill="#fefffe" d="M 5.5,30.5 C 5.83333,30.5 6.16667,30.5 6.5,30.5C 6.31468,31.1701 5.98135,31.1701 5.5,30.5 Z"/></g>
<g><path style="opacity:0.004" fill="#fefffe" d="M 57.5,30.5 C 58.4944,40.9869 58.8278,51.6536 58.5,62.5C 58.1667,62.5 57.8333,62.5 57.5,62.5C 57.5,51.8333 57.5,41.1667 57.5,30.5 Z"/></g>
<g><path style="opacity:0.013" fill="#fefffe" d="M 4.5,31.5 C 4.83333,31.5 5.16667,31.5 5.5,31.5C 5.29598,41.8605 5.62931,52.1938 6.5,62.5C 6.16667,62.5 5.83333,62.5 5.5,62.5C 4.52502,52.2487 4.19168,41.9154 4.5,31.5 Z"/></g>
<g><path style="opacity:0.008" fill="#fefffe" d="M 118.5,35.5 C 118.897,34.475 119.563,34.3083 120.5,35C 119.906,35.4643 119.239,35.631 118.5,35.5 Z"/></g>
<g><path style="opacity:0.006" fill="#fefffe" d="M 136.5,35.5 C 136.897,34.475 137.563,34.3083 138.5,35C 137.906,35.4643 137.239,35.631 136.5,35.5 Z"/></g>
<g><path style="opacity:0.008" fill="#fefffe" d="M 146.5,35.5 C 145.761,35.631 145.094,35.4643 144.5,35C 145.437,34.3083 146.103,34.475 146.5,35.5 Z"/></g>
<g><path style="opacity:0.466" fill="#fefffe" d="M 218.5,39.5 C 219.324,42.7644 219.658,46.0977 219.5,49.5C 202.179,49.6682 202.179,50.1682 219.5,51C 218.874,51.7504 218.374,52.5838 218,53.5C 214.506,51.623 210.673,50.9564 206.5,51.5C 206.373,53.9154 206.207,56.2487 206,58.5C 208.305,58.421 210.805,58.2543 213.5,58C 214.742,54.6433 215.576,54.81 216,58.5C 217.02,54.0275 218.187,53.6941 219.5,57.5C 218.662,57.8417 218.328,58.5084 218.5,59.5C 217.833,59.5 217.5,59.8333 217.5,60.5C 216.833,60.5 216.5,60.8333 216.5,61.5C 215.833,61.5 215.5,61.8333 215.5,62.5C 211.833,62.5 208.167,62.5 204.5,62.5C 204.167,61.1667 203.833,61.1667 203.5,62.5C 202.833,62.5 202.167,62.5 201.5,62.5C 201.611,61.8826 201.944,61.3826 202.5,61C 197.167,53.3333 197.167,45.6667 202.5,38C 202.167,37.6667 201.833,37.3333 201.5,37C 202.774,35.7792 204.274,34.9459 206,34.5C 208.667,35.8333 211.333,35.8333 214,34.5C 214.9,36.2426 216.4,37.9093 218.5,39.5 Z M 212.5,41.5 C 212.5,42.8333 212.5,44.1667 212.5,45.5C 210.5,45.5 208.5,45.5 206.5,45.5C 206.5,44.5 206.5,43.5 206.5,42.5C 208.169,40.3382 210.169,40.0048 212.5,41.5 Z"/></g>
<g><path style="opacity:0.004" fill="#fefffe" d="M 222.5,35.5 C 225.304,34.3622 228.304,34.1955 231.5,35C 228.518,35.498 225.518,35.6646 222.5,35.5 Z"/></g>
<g><path style="opacity:0.004" fill="#fefffe" d="M 236.5,35.5 C 239.304,34.3622 242.304,34.1955 245.5,35C 242.518,35.498 239.518,35.6646 236.5,35.5 Z"/></g>
<g><path style="opacity:0.492" fill="#fefffe" d="M 136.5,35.5 C 139.833,35.5 143.167,35.5 146.5,35.5C 147.9,36.0998 148.9,37.0998 149.5,38.5C 149.66,40.153 150.326,41.4863 151.5,42.5C 151.5,44.8333 151.5,47.1667 151.5,49.5C 132.845,49.668 132.845,50.168 151.5,51C 150.953,51.9246 150.287,52.7579 149.5,53.5C 148.304,53.1543 148.304,52.6543 149.5,52C 145.514,51.5012 141.514,51.3345 137.5,51.5C 137.317,53.9363 137.984,56.103 139.5,58C 142.131,58.1067 144.631,58.2734 147,58.5C 147.923,57.2412 148.757,55.9079 149.5,54.5C 150.429,55.6888 150.762,57.0222 150.5,58.5C 149.833,58.5 149.5,58.8333 149.5,59.5C 148.833,59.5 148.5,59.8333 148.5,60.5C 147.833,60.5 147.5,60.8333 147.5,61.5C 146.833,61.5 146.5,61.8333 146.5,62.5C 142.833,62.5 139.167,62.5 135.5,62.5C 135.5,61.8333 135.167,61.5 134.5,61.5C 132.023,58.8732 130.356,55.8732 129.5,52.5C 129.5,50.5 129.5,48.5 129.5,46.5C 130.319,42.7176 132.319,39.5509 135.5,37C 134.288,35.8932 134.621,35.3932 136.5,35.5 Z M 138.5,40.5 C 140.167,40.5 141.833,40.5 143.5,40.5C 143.5,42.1667 143.5,43.8333 143.5,45.5C 140.918,45.9746 138.918,45.3079 137.5,43.5C 138.404,42.791 138.737,41.791 138.5,40.5 Z"/></g>
<g><path style="opacity:0.008" fill="#fefffe" d="M 32.5,36.5 C 33.525,36.8966 33.6917,37.5632 33,38.5C 32.5357,37.9056 32.369,37.2389 32.5,36.5 Z"/></g>
<g><path style="opacity:0.004" fill="#fefffe" d="M 79.5,36.5 C 80.525,36.8966 80.6917,37.5632 80,38.5C 79.5357,37.9056 79.369,37.2389 79.5,36.5 Z"/></g>
<g><path style="opacity:0.004" fill="#fefffe" d="M 164.5,36.5 C 165.525,36.8966 165.692,37.5632 165,38.5C 164.536,37.9056 164.369,37.2389 164.5,36.5 Z"/></g>
<g><path style="opacity:0.004" fill="#fefffe" d="M 219.5,38.5 C 219.369,37.7611 219.536,37.0944 220,36.5C 220.692,37.4368 220.525,38.1034 219.5,38.5 Z"/></g>
<g><path style="opacity:0.539" fill="#fefffe" d="M 234.5,44.5 C 234.833,47.1667 235.167,47.1667 235.5,44.5C 236.167,44.5 236.5,44.1667 236.5,43.5C 237.338,43.1583 237.672,42.4916 237.5,41.5C 237.167,41.5 236.833,41.5 236.5,41.5C 236.579,40.0695 236.246,38.7362 235.5,37.5C 238.833,36.1667 242.167,36.1667 245.5,37.5C 244.359,38.4255 244.359,39.2588 245.5,40C 244.016,40.6622 242.683,41.4955 241.5,42.5C 241.167,39.8333 240.833,39.8333 240.5,42.5C 239.094,42.9731 238.427,43.9731 238.5,45.5C 235.933,48.095 236.266,50.4283 239.5,52.5C 239.75,54.674 240.75,56.3406 242.5,57.5C 242.369,58.2389 242.536,58.9056 243,59.5C 245.874,57.1091 247.374,57.4424 247.5,60.5C 246.662,60.8417 246.328,61.5084 246.5,62.5C 242.5,62.5 238.5,62.5 234.5,62.5C 234.703,60.9557 235.37,59.6223 236.5,58.5C 235.479,57.0986 234.479,55.7653 233.5,54.5C 232.699,52.2071 232.032,52.5404 231.5,55.5C 231.833,55.5 232.167,55.5 232.5,55.5C 232.249,57.1703 231.582,58.6703 230.5,60C 231.252,60.6708 231.586,61.5041 231.5,62.5C 228.167,62.5 224.833,62.5 221.5,62.5C 222.171,61.1529 222.171,59.9862 221.5,59C 222.766,58.6905 223.933,58.1905 225,57.5C 225.333,58.1667 225.667,58.8333 226,59.5C 227.193,57.1136 228.36,54.7802 229.5,52.5C 230.167,52.5 230.5,52.1667 230.5,51.5C 231.833,50.8333 231.833,50.1667 230.5,49.5C 230.068,48.2905 229.401,47.2905 228.5,46.5C 227.89,44.5659 226.89,42.8993 225.5,41.5C 225.167,38.8333 224.833,38.8333 224.5,41.5C 223.527,41.0133 222.527,40.5133 221.5,40C 222.641,39.2588 222.641,38.4255 221.5,37.5C 225.5,36.1667 229.5,36.1667 233.5,37.5C 232.96,38.7481 232.293,39.9148 231.5,41C 232.636,42.1451 233.636,43.3117 234.5,44.5 Z M 237.5,41.5 C 237.272,39.6453 237.939,38.8119 239.5,39C 238.934,39.9947 238.267,40.828 237.5,41.5 Z M 233.5,54.5 C 232.833,54.5 232.5,54.8333 232.5,55.5C 232.167,55.5 231.833,55.5 231.5,55.5C 232.032,52.5404 232.699,52.2071 233.5,54.5 Z"/></g>
<g><path style="opacity:0.008" fill="#fefffe" d="M 246.5,36.5 C 247.525,36.8966 247.692,37.5632 247,38.5C 246.536,37.9056 246.369,37.2389 246.5,36.5 Z"/></g>
<g><path style="opacity:0.004" fill="#fefffe" d="M 149.5,37.5 C 150.833,38.1667 150.833,38.1667 149.5,37.5 Z"/></g>
<g><path style="opacity:0.012" fill="#fefffe" d="M 124.5,39.5 C 123.833,38.1667 123.833,38.1667 124.5,39.5 Z"/></g>
<g><path style="opacity:0.012" fill="#fefffe" d="M 219.5,38.5 C 219.5,38.8333 219.5,39.1667 219.5,39.5C 218.83,39.0187 218.83,38.6853 219.5,38.5 Z"/></g>
<g><path style="opacity:0.006" fill="#fefffe" d="M 124.5,39.5 C 125.525,39.8966 125.692,40.5632 125,41.5C 124.536,40.9056 124.369,40.2389 124.5,39.5 Z"/></g>
<g><path style="opacity:0.012" fill="#fefffe" d="M 219.5,39.5 C 220.833,40.1667 220.833,40.1667 219.5,39.5 Z"/></g>
<g><path style="opacity:0.016" fill="#fefffe" d="M 110.5,40.5 C 110.833,40.5 111.167,40.5 111.5,40.5C 111.315,41.1701 110.981,41.1701 110.5,40.5 Z"/></g>
<g><path style="opacity:0.014" fill="#fefffe" d="M 152.5,42.5 C 152.167,42.5 151.833,42.5 151.5,42.5C 151.833,39.8333 152.167,39.8333 152.5,42.5 Z"/></g>
<g><path style="opacity:0.012" fill="#fefffe" d="M 109.5,41.5 C 109.833,41.5 110.167,41.5 110.5,41.5C 110.672,42.4916 110.338,43.1583 109.5,43.5C 109.5,42.8333 109.5,42.1667 109.5,41.5 Z"/></g>
<g><path style="opacity:0.006" fill="#fefffe" d="M 220.5,41.5 C 221.634,43.9664 221.801,46.633 221,49.5C 220.503,46.854 220.336,44.1873 220.5,41.5 Z"/></g>
<g><path style="opacity:0.008" fill="#fefffe" d="M 224.5,41.5 C 224.833,41.5 225.167,41.5 225.5,41.5C 225.315,42.1701 224.981,42.1701 224.5,41.5 Z"/></g>
<g><path style="opacity:0.01" fill="#fefffe" d="M 236.5,41.5 C 236.5,42.1667 236.5,42.8333 236.5,43.5C 235.833,43.5 235.5,43.8333 235.5,44.5C 235.167,44.5 234.833,44.5 234.5,44.5C 234.427,42.9731 235.094,41.9731 236.5,41.5 Z"/></g>
<g><path style="opacity:0.009" fill="#fefffe" d="M 129.5,46.5 C 128.167,48.5 128.167,50.5 129.5,52.5C 129.657,53.8734 129.49,55.2068 129,56.5C 127,51.8333 127,47.1667 129,42.5C 129.49,43.7932 129.657,45.1266 129.5,46.5 Z"/></g>
<g><path style="opacity:0.007" fill="#fefffe" d="M 152.5,42.5 C 153.629,44.6282 153.796,46.9615 153,49.5C 152.503,47.1902 152.337,44.8568 152.5,42.5 Z"/></g>
<g><path style="opacity:0.008" fill="#fefffe" d="M 240.5,42.5 C 240.833,42.5 241.167,42.5 241.5,42.5C 241.315,43.1701 240.981,43.1701 240.5,42.5 Z"/></g>
<g><path style="opacity:0.008" fill="#fefffe" d="M 239.5,44.5 C 240.833,45.1667 240.833,45.1667 239.5,44.5 Z"/></g>
<g><path style="opacity:0.01" fill="#fefffe" d="M 238.5,45.5 C 238.833,45.5 239.167,45.5 239.5,45.5C 239.167,48.1667 238.833,48.1667 238.5,45.5 Z"/></g>
<g><path style="opacity:0.008" fill="#fefffe" d="M 228.5,46.5 C 227.833,47.1667 227.833,47.1667 228.5,46.5 Z"/></g>
<g><path style="opacity:0.01" fill="#fefffe" d="M 230.5,49.5 C 230.5,50.1667 230.5,50.8333 230.5,51.5C 229.833,51.5 229.5,51.8333 229.5,52.5C 228.285,51.221 228.618,50.221 230.5,49.5 Z"/></g>
<g><path style="opacity:0.012" fill="#fefffe" d="M 239.5,51.5 C 240.833,52.1667 240.833,52.1667 239.5,51.5 Z"/></g>
<g><path style="opacity:0.008" fill="#fefffe" d="M 253.5,53.5 C 254.833,54.1667 254.833,54.1667 253.5,53.5 Z"/></g>
<g><path style="opacity:0.006" fill="#fefffe" d="M 95.5,55.5 C 95.8966,54.475 96.5632,54.3083 97.5,55C 96.9056,55.4643 96.2389,55.631 95.5,55.5 Z"/></g>
<g><path style="opacity:0.008" fill="#fefffe" d="M 146.5,54.5 C 147.525,54.8966 147.692,55.5632 147,56.5C 146.536,55.9056 146.369,55.2389 146.5,54.5 Z"/></g>
<g><path style="opacity:0.012" fill="#fefffe" d="M 151.5,58.5 C 151.343,57.1266 151.51,55.7932 152,54.5C 152.765,56.0657 152.598,57.3991 151.5,58.5 Z"/></g>
<g><path style="opacity:0.004" fill="#fefffe" d="M 220.5,57.5 C 220.351,56.448 220.517,55.448 221,54.5C 221.74,55.7494 221.573,56.7494 220.5,57.5 Z"/></g>
<g><path style="opacity:0.695" fill="#fefffe" d="M 253.5,54.5 C 253.842,55.3382 254.508,55.6716 255.5,55.5C 255.5,57.5 255.5,59.5 255.5,61.5C 254.833,61.5 254.5,61.8333 254.5,62.5C 253.167,62.5 251.833,62.5 250.5,62.5C 250.5,61.8333 250.167,61.5 249.5,61.5C 249.5,60.8333 249.167,60.5 248.5,60.5C 247.976,56.6897 249.643,54.6897 253.5,54.5 Z"/></g>
<g><path style="opacity:0.008" fill="#fefffe" d="M 242.5,56.5 C 243.833,57.1667 243.833,57.1667 242.5,56.5 Z"/></g>
<g><path style="opacity:0.01" fill="#fefffe" d="M 219.5,57.5 C 219.833,57.5 220.167,57.5 220.5,57.5C 220.672,58.4916 220.338,59.1583 219.5,59.5C 219.5,58.8333 219.5,58.1667 219.5,57.5 Z"/></g>
<g><path style="opacity:0.008" fill="#fefffe" d="M 150.5,58.5 C 150.833,58.5 151.167,58.5 151.5,58.5C 151.315,59.1701 150.981,59.1701 150.5,58.5 Z"/></g>
<g><path style="opacity:0.008" fill="#fefffe" d="M 84.5,59.5 C 85.8333,60.1667 85.8333,60.1667 84.5,59.5 Z"/></g>
<g><path style="opacity:0.004" fill="#fefffe" d="M 149.5,59.5 C 149.833,59.5 150.167,59.5 150.5,59.5C 150.315,60.1701 149.981,60.1701 149.5,59.5 Z"/></g>
<g><path style="opacity:0.008" fill="#fefffe" d="M 218.5,59.5 C 218.833,59.5 219.167,59.5 219.5,59.5C 219.315,60.1701 218.981,60.1701 218.5,59.5 Z"/></g>
<g><path style="opacity:0.006" fill="#fefffe" d="M 113.5,62.5 C 112.833,62.5 112.167,62.5 111.5,62.5C 112.167,59.8333 112.833,59.8333 113.5,62.5 Z"/></g>
<g><path style="opacity:0.004" fill="#fefffe" d="M 130.5,62.5 C 130.167,62.5 129.833,62.5 129.5,62.5C 129.833,59.8333 130.167,59.8333 130.5,62.5 Z"/></g>
<g><path style="opacity:0.008" fill="#fefffe" d="M 148.5,60.5 C 148.833,60.5 149.167,60.5 149.5,60.5C 149.315,61.1701 148.981,61.1701 148.5,60.5 Z"/></g>
<g><path style="opacity:0.004" fill="#fefffe" d="M 165.5,62.5 C 165.167,62.5 164.833,62.5 164.5,62.5C 164.833,59.8333 165.167,59.8333 165.5,62.5 Z"/></g>
<g><path style="opacity:0.004" fill="#fefffe" d="M 198.5,62.5 C 198.167,62.5 197.833,62.5 197.5,62.5C 197.833,59.8333 198.167,59.8333 198.5,62.5 Z"/></g>
<g><path style="opacity:0.004" fill="#fefffe" d="M 217.5,60.5 C 217.833,60.5 218.167,60.5 218.5,60.5C 218.315,61.1701 217.981,61.1701 217.5,60.5 Z"/></g>
<g><path style="opacity:0.012" fill="#fefffe" d="M 233.5,62.5 C 233.167,62.5 232.833,62.5 232.5,62.5C 232.833,59.8333 233.167,59.8333 233.5,62.5 Z"/></g>
<g><path style="opacity:0.008" fill="#fefffe" d="M 247.5,60.5 C 247.833,60.5 248.167,60.5 248.5,60.5C 249.167,60.5 249.5,60.8333 249.5,61.5C 249.5,61.8333 249.5,62.1667 249.5,62.5C 248.833,62.5 248.167,62.5 247.5,62.5C 247.5,61.8333 247.5,61.1667 247.5,60.5 Z"/></g>
<g><path style="opacity:0.008" fill="#fefffe" d="M 87.5,61.5 C 87.5,61.8333 87.5,62.1667 87.5,62.5C 86.8299,62.0187 86.8299,61.6853 87.5,61.5 Z"/></g>
<g><path style="opacity:0.008" fill="#fefffe" d="M 134.5,61.5 C 134.5,61.8333 134.5,62.1667 134.5,62.5C 133.83,62.0187 133.83,61.6853 134.5,61.5 Z"/></g>
<g><path style="opacity:0.008" fill="#fefffe" d="M 147.5,61.5 C 147.833,61.5 148.167,61.5 148.5,61.5C 148.5,61.8333 148.5,62.1667 148.5,62.5C 148.167,62.1667 147.833,61.8333 147.5,61.5 Z"/></g>
<g><path style="opacity:0.008" fill="#fefffe" d="M 216.5,61.5 C 216.833,61.5 217.167,61.5 217.5,61.5C 217.5,61.8333 217.5,62.1667 217.5,62.5C 217.167,62.1667 216.833,61.8333 216.5,61.5 Z"/></g>
</svg>
